<svg viewBox="0 0 116 25" fill="none" xmlns="http://www.w3.org/2000/svg"><path d="m11.55 0 2.6 8.5h8.38l-6.78 5.27 2.59 8.5-6.79-5.25-6.79 5.26 2.6-8.51-6.8-5.26h8.4l2.59-8.51Zm23.1 0 2.6 8.5h8.38l-6.78 5.27 2.59 8.5-6.79-5.25-6.79 5.26 2.6-8.51-6.8-5.26h8.4l2.59-8.51Zm23.1 0 2.6 8.5h8.38l-6.78 5.27 2.59 8.5-6.79-5.25-6.79 5.26 2.6-8.51-6.8-5.26h8.4l2.59-8.51Zm23.1 0 2.6 8.5h8.38l-6.78 5.27 2.59 8.5-6.79-5.25-6.79 5.26 2.6-8.51-6.8-5.26h8.4l2.59-8.51Zm23.1 0 2.6 8.5h8.39l-6.8 5.27 2.6 8.5-6.79-5.25-6.79 5.26 2.6-8.51-6.8-5.26h8.4l2.59-8.51Z" fill="#FF3131"/></svg>